<svg xmlns="http://www.w3.org/2000/svg" viewBox="0 0 15 13"><g id="Слой_2" data-name="Слой 2"><g id="Слой_1-2" data-name="Слой 1"><path d="M3.54,8.64a2,2,0,0,1-.38.11l0,.62a6.17,6.17,0,0,1-.46-.43V7.48h.54l0,.84a4.14,4.14,0,0,0,1.25-.85h.69a6.27,6.27,0,0,1-1.19,1A21.66,21.66,0,0,1,5,10.51c-.22-.1-.44-.2-.66-.32A15.69,15.69,0,0,0,3.54,8.64Z"/><path d="M8,11.07H7.38l0-3-1.14,0,0,1.23c0,1.25-.28,1.58-.82,1.39a1.29,1.29,0,0,1-.26-.12l0-.57.15,0c.24.07.32,0,.36-.89l.07-1.69,2.19,0Z"/><path d="M8.84,7.42h.54l.14,3.46L8.94,11Z"/><path d="M11.29,8.86l-.36.51.06,1-.54.24L10.28,7.4h.54l.08,1.3A7.19,7.19,0,0,1,12,7.39h.69a4.16,4.16,0,0,0-1.08,1A1.91,1.91,0,0,0,12.78,9a6.8,6.8,0,0,1-.57.5A3.13,3.13,0,0,1,11.29,8.86Z"/><path d="M5.81,5.07c0,.68-.53,1.12-1.37,1.16l-1.92.13L2.77,3a10.07,10.07,0,0,1,1.76-.58c.75-.19,1.24.18,1.23.84a1.13,1.13,0,0,1-.54.95A.87.87,0,0,1,5.81,5.07ZM3.36,3.23l0,1c.35-.08.7-.15,1.06-.21s.71-.28.72-.66S4.87,2.84,4.4,3,3.7,3.12,3.36,3.23ZM5.12,5c0-.39-.25-.57-.76-.5l-1.08.18L3.22,5.8l1.11-.11C4.84,5.65,5.11,5.44,5.12,5Z"/><path d="M6.76,2.06C7,2,7.21,2,7.43,2V6.13h-.7Z"/><path d="M12.53,5.77l.09,1.14h-.69l0-.71c-1,0-2-.08-3-.08V7H8.25V5.51h.44a6.74,6.74,0,0,0,.12-1.6l0-1.78a12,12,0,0,1,3.09.79l.18,2.8Zm-1.17-.11-.11-2.45a13.76,13.76,0,0,0-1.8-.4L9.47,4a8,8,0,0,1-.12,1.58Q10.37,5.59,11.36,5.66Z"/><path d="M7.5.5c3.86,0,7,2.69,7,6s-3.14,6-7,6-7-2.69-7-6,3.14-6,7-6m0-.5C3.36,0,0,2.91,0,6.5S3.36,13,7.5,13,15,10.09,15,6.5,11.64,0,7.5,0Z"/></g></g></svg>